<svg viewBox="0 0 497.2500305175781 399.9935302734375" xmlns="http://www.w3.org/2000/svg"><g><g><g><g><g><line x1="51.5625" y1="353.37276811563305" x2="46.5625" y2="353.37276811563305" style="visibility: inherit;" fill="rgb(0, 0, 0)" stroke="rgb(204, 204, 204)" stroke-width="1px"></line><line x1="51.5625" y1="322.95827241252556" x2="46.5625" y2="322.95827241252556" style="visibility: inherit;" fill="rgb(0, 0, 0)" stroke="rgb(204, 204, 204)" stroke-width="1px"></line><line x1="51.5625" y1="292.5437767094181" x2="46.5625" y2="292.5437767094181" style="visibility: inherit;" fill="rgb(0, 0, 0)" stroke="rgb(204, 204, 204)" stroke-width="1px"></line><line x1="51.5625" y1="262.12928100631063" x2="46.5625" y2="262.12928100631063" style="visibility: inherit;" fill="rgb(0, 0, 0)" stroke="rgb(204, 204, 204)" stroke-width="1px"></line><line x1="51.5625" y1="231.71478530320314" x2="46.5625" y2="231.71478530320314" style="visibility: inherit;" fill="rgb(0, 0, 0)" stroke="rgb(204, 204, 204)" stroke-width="1px"></line><line x1="51.5625" y1="201.30028960009568" x2="46.5625" y2="201.30028960009568" style="visibility: inherit;" fill="rgb(0, 0, 0)" stroke="rgb(204, 204, 204)" stroke-width="1px"></line><line x1="51.5625" y1="170.88579389698822" x2="46.5625" y2="170.88579389698822" style="visibility: inherit;" fill="rgb(0, 0, 0)" stroke="rgb(204, 204, 204)" stroke-width="1px"></line><line x1="51.5625" y1="140.47129819388073" x2="46.5625" y2="140.47129819388073" style="visibility: inherit;" fill="rgb(0, 0, 0)" stroke="rgb(204, 204, 204)" stroke-width="1px"></line><line x1="51.5625" y1="110.05680249077328" x2="46.5625" y2="110.05680249077328" style="visibility: inherit;" fill="rgb(0, 0, 0)" stroke="rgb(204, 204, 204)" stroke-width="1px"></line><line x1="51.5625" y1="79.64230678766576" x2="46.5625" y2="79.64230678766576" style="visibility: inherit;" fill="rgb(0, 0, 0)" stroke="rgb(204, 204, 204)" stroke-width="1px"></line><line x1="51.5625" y1="49.22781108455834" x2="46.5625" y2="49.22781108455834" style="visibility: inherit;" fill="rgb(0, 0, 0)" stroke="rgb(204, 204, 204)" stroke-width="1px"></line><line x1="51.5625" y1="18.813315381450828" x2="46.5625" y2="18.813315381450828" style="visibility: inherit;" fill="rgb(0, 0, 0)" stroke="rgb(204, 204, 204)" stroke-width="1px"></line></g><g transform="translate(41.5625, 0)"><text x="0" y="353.37276811563305" dx="0em" dy="0.3em" style="text-anchor: end; visibility: inherit; font-family: Roboto, sans-serif; font-size: 12px; font-weight: 200;" fill="rgb(255, 255, 255)" stroke="none" stroke-width="1px">-0.1</text><text x="0" y="322.95827241252556" dx="0em" dy="0.3em" style="text-anchor: end; visibility: inherit; font-family: Roboto, sans-serif; font-size: 12px; font-weight: 200;" fill="rgb(255, 255, 255)" stroke="none" stroke-width="1px">0</text><text x="0" y="292.5437767094181" dx="0em" dy="0.3em" style="text-anchor: end; visibility: inherit; font-family: Roboto, sans-serif; font-size: 12px; font-weight: 200;" fill="rgb(255, 255, 255)" stroke="none" stroke-width="1px">0.1</text><text x="0" y="262.12928100631063" dx="0em" dy="0.3em" style="text-anchor: end; visibility: inherit; font-family: Roboto, sans-serif; font-size: 12px; font-weight: 200;" fill="rgb(255, 255, 255)" stroke="none" stroke-width="1px">0.2</text><text x="0" y="231.71478530320314" dx="0em" dy="0.3em" style="text-anchor: end; visibility: inherit; font-family: Roboto, sans-serif; font-size: 12px; font-weight: 200;" fill="rgb(255, 255, 255)" stroke="none" stroke-width="1px">0.3</text><text x="0" y="201.30028960009568" dx="0em" dy="0.3em" style="text-anchor: end; visibility: inherit; font-family: Roboto, sans-serif; font-size: 12px; font-weight: 200;" fill="rgb(255, 255, 255)" stroke="none" stroke-width="1px">0.4</text><text x="0" y="170.88579389698822" dx="0em" dy="0.3em" style="text-anchor: end; visibility: inherit; font-family: Roboto, sans-serif; font-size: 12px; font-weight: 200;" fill="rgb(255, 255, 255)" stroke="none" stroke-width="1px">0.5</text><text x="0" y="140.47129819388073" dx="0em" dy="0.3em" style="text-anchor: end; visibility: inherit; font-family: Roboto, sans-serif; font-size: 12px; font-weight: 200;" fill="rgb(255, 255, 255)" stroke="none" stroke-width="1px">0.6</text><text x="0" y="110.05680249077328" dx="0em" dy="0.3em" style="text-anchor: end; visibility: inherit; font-family: Roboto, sans-serif; font-size: 12px; font-weight: 200;" fill="rgb(255, 255, 255)" stroke="none" stroke-width="1px">0.7</text><text x="0" y="79.64230678766576" dx="0em" dy="0.3em" style="text-anchor: end; visibility: inherit; font-family: Roboto, sans-serif; font-size: 12px; font-weight: 200;" fill="rgb(255, 255, 255)" stroke="none" stroke-width="1px">0.8</text><text x="0" y="49.22781108455834" dx="0em" dy="0.3em" style="text-anchor: end; visibility: inherit; font-family: Roboto, sans-serif; font-size: 12px; font-weight: 200;" fill="rgb(255, 255, 255)" stroke="none" stroke-width="1px">0.9</text><text x="0" y="18.813315381450828" dx="0em" dy="0.3em" style="text-anchor: end; visibility: inherit; font-family: Roboto, sans-serif; font-size: 12px; font-weight: 200;" fill="rgb(255, 255, 255)" stroke="none" stroke-width="1px">1</text></g><line x1="51.5625" y1="0" x2="51.5625" y2="376.994" fill="rgb(0, 0, 0)" stroke="rgb(204, 204, 204)" stroke-width="1px"></line></g></g><g transform="translate(51, 0)" clip-path="url(#clip_0)"><clipPath id="clip_0"><rect width="445" height="376"></rect></clipPath><g><g><g><line x1="23.77050604540241" y1="0" x2="23.77050604540241" y2="376.994" fill="rgb(0, 0, 0)" stroke="rgb(189, 189, 189)" stroke-width="1px" opacity="0.25"></line><line x1="64.5319636938872" y1="0" x2="64.5319636938872" y2="376.994" fill="rgb(0, 0, 0)" stroke="rgb(189, 189, 189)" stroke-width="1px" opacity="0.25"></line><line x1="105.293421342372" y1="0" x2="105.293421342372" y2="376.994" fill="rgb(0, 0, 0)" stroke="rgb(189, 189, 189)" stroke-width="1px" opacity="0.25"></line><line x1="146.0548789908568" y1="0" x2="146.0548789908568" y2="376.994" fill="rgb(0, 0, 0)" stroke="rgb(189, 189, 189)" stroke-width="1px" opacity="0.25"></line><line x1="186.81633663934159" y1="0" x2="186.81633663934159" y2="376.994" fill="rgb(0, 0, 0)" stroke="rgb(189, 189, 189)" stroke-width="1px" opacity="0.25"></line><line x1="227.57779428782638" y1="0" x2="227.57779428782638" y2="376.994" fill="rgb(0, 0, 0)" stroke="rgb(189, 189, 189)" stroke-width="1px" opacity="0.25"></line><line x1="268.3392519363112" y1="0" x2="268.3392519363112" y2="376.994" fill="rgb(0, 0, 0)" stroke="rgb(189, 189, 189)" stroke-width="1px" opacity="0.25"></line><line x1="309.10070958479594" y1="0" x2="309.10070958479594" y2="376.994" fill="rgb(0, 0, 0)" stroke="rgb(189, 189, 189)" stroke-width="1px" opacity="0.25"></line><line x1="349.8621672332808" y1="0" x2="349.8621672332808" y2="376.994" fill="rgb(0, 0, 0)" stroke="rgb(189, 189, 189)" stroke-width="1px" opacity="0.25"></line><line x1="390.6236248817656" y1="0" x2="390.6236248817656" y2="376.994" fill="rgb(0, 0, 0)" stroke="rgb(189, 189, 189)" stroke-width="1px" opacity="0.25"></line><line x1="431.3850825302504" y1="0" x2="431.3850825302504" y2="376.994" fill="rgb(0, 0, 0)" stroke="rgb(189, 189, 189)" stroke-width="1px" opacity="0.25"></line></g><g><line x1="0" y1="353.37276811563305" x2="445.6875" y2="353.37276811563305" fill="rgb(0, 0, 0)" stroke="rgb(189, 189, 189)" stroke-width="1px" opacity="0.25"></line><line x1="0" y1="322.95827241252556" x2="445.6875" y2="322.95827241252556" fill="rgb(0, 0, 0)" stroke="rgb(189, 189, 189)" stroke-width="1px" opacity="0.25"></line><line x1="0" y1="292.5437767094181" x2="445.6875" y2="292.5437767094181" fill="rgb(0, 0, 0)" stroke="rgb(189, 189, 189)" stroke-width="1px" opacity="0.25"></line><line x1="0" y1="262.12928100631063" x2="445.6875" y2="262.12928100631063" fill="rgb(0, 0, 0)" stroke="rgb(189, 189, 189)" stroke-width="1px" opacity="0.25"></line><line x1="0" y1="231.71478530320314" x2="445.6875" y2="231.71478530320314" fill="rgb(0, 0, 0)" stroke="rgb(189, 189, 189)" stroke-width="1px" opacity="0.25"></line><line x1="0" y1="201.30028960009568" x2="445.6875" y2="201.30028960009568" fill="rgb(0, 0, 0)" stroke="rgb(189, 189, 189)" stroke-width="1px" opacity="0.25"></line><line x1="0" y1="170.88579389698822" x2="445.6875" y2="170.88579389698822" fill="rgb(0, 0, 0)" stroke="rgb(189, 189, 189)" stroke-width="1px" opacity="0.25"></line><line x1="0" y1="140.47129819388073" x2="445.6875" y2="140.47129819388073" fill="rgb(0, 0, 0)" stroke="rgb(189, 189, 189)" stroke-width="1px" opacity="0.25"></line><line x1="0" y1="110.05680249077328" x2="445.6875" y2="110.05680249077328" fill="rgb(0, 0, 0)" stroke="rgb(189, 189, 189)" stroke-width="1px" opacity="0.25"></line><line x1="0" y1="79.64230678766576" x2="445.6875" y2="79.64230678766576" fill="rgb(0, 0, 0)" stroke="rgb(189, 189, 189)" stroke-width="1px" opacity="0.25"></line><line x1="0" y1="49.22781108455834" x2="445.6875" y2="49.22781108455834" fill="rgb(0, 0, 0)" stroke="rgb(189, 189, 189)" stroke-width="1px" opacity="0.25"></line><line x1="0" y1="18.813315381450828" x2="445.6875" y2="18.813315381450828" fill="rgb(0, 0, 0)" stroke="rgb(189, 189, 189)" stroke-width="1px" opacity="0.25"></line></g></g></g><g><g><line x1="0" y1="322.95827241252556" x2="445.6875" y2="322.95827241252556" fill="rgb(0, 0, 0)" stroke="rgb(153, 153, 153)" stroke-width="1.5px"></line></g></g><g><g><line x1="23.77050604540241" y1="0" x2="23.77050604540241" y2="376.994" fill="rgb(0, 0, 0)" stroke="rgb(153, 153, 153)" stroke-width="1.5px"></line></g></g><g><g><g><g><g><path stroke="rgb(0, 119, 187)" stroke-width="2px" d="M24.504212283075134,196.2312100043198L24.748781028966043,170.8731193837888L25.400964351341802,187.79119771063634L25.48248726663877,196.25023264030668L25.604771639584225,196.24642049644274L26.053147673717554,196.2438790693198L26.66456953844483,210.7686636577318L26.78685391139028,208.94511227011617L27.602083064359977,204.69935565878154L28.091220556141796,193.66485247508945L28.90644970911149,193.89932656538483L30.088531980917548,179.22840392155575L30.210816353863006,174.66006009293798L30.577669472699366,174.38871292947147L31.229852795075125,177.55665297780857L31.311375710372097,177.1365884559328L33.104879846905426,173.76020451099288L33.30868713514785,169.33889809663077L33.92010899987512,170.76706387994616L34.164677745766035,170.77305697504173L34.36848503400845,167.12136542298202L34.653815237547846,168.458486795593L34.898383983438755,173.0217662004064L36.325035001135724,166.52221450106597L36.40655791643269,160.5426508796842L36.73264957762057,155.0230767117686L37.58864018823875,155.61825801978983L37.91473184942663,157.08839652416805L38.72996100239633,154.9120329204149L40.93107971541451,152.88077005106098L40.97184117306299,151.81048903089172L41.66478595308723,147.5895523643642L41.78707032603269,143.62445120933046L41.90935469897814,139.89261184405382L42.52077656370541,140.05673651646774L42.64306093665087,140.9281780288666L42.683822394299355,143.14734854867018L43.0914369707842,145.9291117360323L43.865904666105415,142.60739108304443L44.72189527672359,139.45177699427316L45.414840056747835,136.45011533071528L45.61864734499026,133.59140949041122L46.719206701499346,135.68086188572926L47.1268212779842,137.67532486460067L47.3713900238751,138.42969605267686L47.656720227414496,140.27822623042346L47.69748168506298,140.9445491267082L49.04260978746298,139.42094562873535L49.12413270275995,136.89999979197987L49.61327019454177,134.47991157181866L49.89860039808116,132.15474816708357L49.93936185572965,133.41868761721665L50.020884771026616,134.14415973648627L50.143169143972074,134.36084486092753L50.22469205926904,133.62288019944222L50.71382955105086,131.51579385505127L51.12144412753571,129.48265935886005L52.87418680642055,127.51965161505996L53.20027846760843,127.39186803810725L53.52637012879631,126.8333334393909L53.89322324763267,125.00883967743462L54.42312219706298,123.24321852038466L54.58616802765692,121.53366651064782L54.95302114649328,119.87755540672575L55.116066977087215,118.2724187050547L55.19758989238419,116.7159393871335L55.27911280768116,115.20593876391908L55.56444301122055,114.12572287261543L55.76825029946298,112.69686993765494L55.84977321475994,112.05829119377684L56.05358050300237,112.54657340984674L56.13510341829934,113.38595495044184L56.29814924889327,113.12277763167636L56.46119507948722,111.8012262274869L56.70576382537813,110.51493207289637L56.746525283026614,110.30097982164024L57.684038808941764,109.06709139651262L57.847084639535694,107.86485657882616L59.19221274193569,107.36008781801435L59.477542945475086,107.1974456541849L59.722111691366,108.01560259340033L60.29277209844478,106.88310290046175L60.45581792903872,105.77790747461373L60.74114813257812,106.58562362180533L60.82267104787509,107.6852081882394L61.148762709062964,107.22210012296392L61.719423116141755,106.1615697802983L61.76018457379024,105.12515744119632L62.16779915027509,104.1120501389852L62.29008352322054,103.12147103884163L62.6569366420569,102.15267745252439L62.98302830324477,101.20495898258308L63.34988142208115,100.27763578629333L63.39064287972963,99.37005695040564L63.635211625620535,98.48159896854109L63.67597308326903,97.61166431375109L63.879780371511444,96.75968009936999L64.61348660918416,97.01060513203394L64.73577098212964,96.4501525879291L65.102624100966,95.63470685679617L66.32546783042054,94.83542189851991L66.85536677985084,94.05182239598624L67.09993552574174,93.28345149099506L67.2222198986872,92.52986989681384L67.30374281398416,91.79065506143886L67.46678864457812,91.06540037822332L67.71135739046902,90.35371444076601L67.91516467871143,89.90268355654374L68.3227792551963,89.21462306306218L68.5673480010872,88.53908504260593L68.77115528932963,87.87573104969121L69.17876986581447,87.22423472617108L70.89075108705083,86.58428126639596L71.05379691764477,85.95556691052707L71.09455837529326,85.33779846428267L71.13531983294175,84.7306928435263L71.86902607061447,85.96948879082655L72.39892502004477,85.82162715789279L72.92882396947506,85.45044907957123L73.98862186833568,85.98159416906523L74.47775936011749,86.05936986972635L74.92613539425082,85.47414147859251L75.04841976719628,84.89844071110029L75.17070414014174,84.33203705994096L75.98593329311144,83.99030603329133L76.23050203900233,84.9379606427212L76.51583224254173,84.38379221765771L76.76040098843265,83.83829422918038L77.4125843108084,83.30126503893615L77.53486868375386,82.77250921282725L77.98324471788719,82.25183728420693L78.10552909083265,81.73906552783933L78.22781346377809,81.23401574405808L78.26857492142658,81.14052724616305L80.22512488855385,80.64721015065221L80.34740926149931,80.16115866221125L80.46969363444477,79.68221367966098L80.51045509209324,79.40675546575388L81.40720716035992,78.94005071575303L81.89634465214172,78.48002384110902L82.30395922862657,78.02653275907193L82.46700505922051,77.57943938922102L83.48604150043263,77.13860951352179L83.52680295808112,76.70391264221756L83.97517899221445,77.58903475197366L84.30127065340233,78.46201079043378L84.46431648399627,78.39651473881246L84.54583939929324,78.33190535293255L85.85020604404475,77.90215307556007L86.0132518746387,77.47814136494492L87.03228831585082,77.05975616977881L87.68447163822657,76.82654293434925L87.72523309587505,76.77495350621358L88.33665496060233,76.3690427132302L88.49970079119626,75.96837976890262L89.15188411357202,75.57286375274842L89.19264557122051,75.1823963155054L90.08939763948717,74.79688159776431L90.29320492772959,74.41622615167111L90.49701221597202,74.04033886556624L90.61929658891746,73.66913089143196L90.8231038771599,73.3025155750269L90.94538825010535,72.940408388592L91.43452574188717,72.58272686601892L91.76061740307505,72.72904944779704L92.04594760661445,73.20486554764092L92.33127781015384,73.01609621465246L92.6981309289902,72.6657617073874L92.86117675958414,72.31958286890192L92.9426996748811,71.9774863635397L93.02422259017808,71.63940057109603L93.14650696312353,71.30525553695102L93.43183716666293,70.97498292393041L93.79869028549929,70.64851596582763L94.20630486198414,71.43039523492483L94.36935069257808,71.73242556158063L94.45087360787504,71.71869571080035L94.5731579808205,71.5497530473528L94.77696526906293,71.22812856631283L94.89924964200837,70.91008718341772L94.94001109965686,70.59556950996149L95.75524025262656,70.2845174624821L96.12209337146292,69.97687422710024L96.36666211735383,69.67258422501843L96.65199232089323,69.3715930791418L96.69275377854171,69.07384758177284L97.05960689737807,68.77929566334564L97.34493710091746,68.48788636215453L98.20092771153564,68.19956979504724L98.36397354212959,67.91429712904147L98.77158811861443,67.63202055383314L98.93463394920836,67.3526932551648L99.30148706804474,67.07626938902044L99.83138601747504,66.80270405661976L99.95367039042048,66.81794529965306L100.1982391363114,67.26003639382934L100.27976205160836,67.83930623249665L101.66565161165686,67.56650224159381L101.91022035754776,67.29644891434066L102.60316513757199,67.02910499043033L103.01077971405685,66.76443003065502L103.13306408700231,66.50238439658096L103.21458700229927,66.24292923082587L103.948293239972,65.98602643791517L104.5189536470508,65.73163866569926L104.60047656234775,65.47972928731066L105.33418280002049,65.63673298179837L105.49722863061442,66.19693348182152L105.8233202918023,66.61743069155466L106.51626507182654,66.36516745244172L106.76083381771745,66.11530408176891L107.73910880128109,65.8678066187673L108.26900775071138,65.62264174042706L108.39129212365685,65.37977674659658L108.43205358130533,65.13917954549761L108.5135764966023,64.90081863964213L108.59509941189927,64.66466311213973L108.75814524249321,64.43068261338048L108.92119107308714,64.19884734808325L109.20652127662653,63.969128062698076L109.81794314135381,63.7414960331493L111.20383270140229,63.515923052910395L111.36687853199624,63.29238142139995L111.65220873553562,63.07084393268814L112.019061854372,62.97702155209546L112.50819934615382,62.758791335833884L112.91581392263865,62.542492001397264L112.99733683793562,62.32809814207846L113.07885975323258,62.11558479495361L113.28266704147502,61.904927431235414L113.40495141442048,61.69610194687586L113.73104307560834,61.48908465341213L113.8940889062023,61.283852269049135L114.70931805917199,61.080381909969155L114.91312534741441,60.878651081865115L114.9538868050629,60.678637671687646L115.03540972035985,60.480319939601884L115.15769409330534,60.283676511146886L115.32073992389927,60.088686369591656L115.36150138154775,59.895328848482556L115.64683158508713,59.703583624375995L115.76911595803259,59.51343070975184L115.97292324627502,59.32485044610102L116.74739094159622,59.13782349718331L117.15500551808108,58.9523308424511L117.39957426397199,58.88452437716803L117.64414300986289,58.93302558830488L117.80718884045685,58.865789250144076L118.29632633223865,58.68415949873761L118.33708778988712,58.50399026227393L119.35612423109926,59.352432291034255L119.7229773499356,59.85291123688809L121.1496283676326,59.66939595572893L121.19038982528107,59.48733335340844L121.27191274057805,59.30670633919992L123.06541687711136,59.127498089417635L123.39150853829925,58.949692042221635L123.67683874183864,58.773271892542965L123.7583616571356,58.59822158712705L123.8398845724326,58.42452531969138L124.04369186067501,58.252167526193325L125.06272830188712,58.081132880207996L125.10348975953559,57.91140628841036L125.51110433602045,57.85216013905849L125.59262725131742,57.79336371713904L125.79643453955987,57.626541969571676L126.36709494663863,57.4609771620002L126.61166369252956,57.29665522381136L126.9785168113659,57.133562293618496L127.58993867609318,56.97168471538766L127.75298450668711,56.811009034649096L127.8345074219841,56.65152199479038L128.85354386319622,56.493210533434755L129.34268135497803,56.336061778894965L129.75029593146286,56.18006304670758L129.9948646773538,56.0252018362399L130.68780945737802,55.871465827372944L130.93237820326894,55.71884287725373L130.9731396609174,55.56732101711956L131.54380006799622,55.41688844918817L131.78836881388713,55.267533543616224L131.99217610212955,55.11924483552129L132.92968962804468,54.97201102206718L133.2150198315841,54.82582095961145L133.41882711982652,54.68066366091227L133.94872606925682,54.536528292394074L134.2340562727962,54.393404171470564L134.8454781375235,54.25128076392358L135.3346156293053,54.110147681335796L135.45690000225073,53.96999467857698L136.02756040932954,53.83081165134251L137.4542114270265,53.692588633740996L137.49497288467498,53.55531579593327L137.53573434232348,53.41898344181808L138.2694405799962,53.283582006765386L138.88086244472348,53.149102055395886L140.83741241185075,53.21272392839562L141.2042655306871,53.177604945115256L141.57111864952347,53.04469414401732L141.8156873954144,52.912675990778524L142.67167800603255,52.78154158818392L142.75320092132952,53.13724795803964L142.79396237897802,53.29675179840653L144.7097508884568,53.165261776334475L145.03584254964466,53.03464059865478L145.97335607555982,52.90487974688411L146.34020919439618,52.77597081352791L146.50325502499012,52.743477164246116L146.66630085558407,52.99711832031773L147.1554383473659,52.96397435166888L147.27772272031135,52.83626065463576L147.6038143814992,52.70937220835293L147.72609875444465,52.58330110266092L148.70437373800831,52.45803952816546L148.86741956860223,52.33357977463787L148.9489424838992,52.20991422944592L150.09026329805678,52.087035376014576L151.02777682397192,51.96493579231591L151.6391986886992,51.84360814938662L151.96529034988708,51.72304520987448L152.1690976381295,51.695507864683414L152.37290492637192,51.66814302191405L152.61747367226286,51.549165494096954L153.2696569946386,51.4309287560212L154.00336323231133,51.3134259692177L154.04412468995983,51.19665037912407L154.3294548934992,51.08059531380061L154.45173926644466,50.965254182672446L155.4300142500083,50.850620475291365L155.55229862295374,50.91695710960319L155.83762882649316,50.80307958427557L155.9599131994386,50.68989430721786L156.0006746570871,50.577395041547184L156.08219757238405,50.465575625072766L156.12295903003255,50.35442996918111L157.14199547124468,50.24395205774069L157.50884859008102,50.134135946027115L158.48712357364468,50.02497575966656L158.81321523483254,49.916465693597836L159.38387564191132,49.80860001105399L159.42463709955982,49.701373042559865L160.11758187958404,49.59477918494883L161.29966415139012,49.488812900396496L161.3811870666871,49.38346871547022L161.78880164317195,49.2787412201965L162.48174642319617,49.17462506714355L162.6855537114386,49.07111497052045L163.58230577970525,48.968205705291155L163.90839744089314,48.86589210630457L164.35677347502647,48.764169067438516L164.43829639032344,48.66303154075907L164.72362659386283,48.562474535694236L164.96819533975372,48.46249311822103L165.25352554329314,48.36308241006746L165.49809428918405,48.26423758792614L165.6203786621295,48.16595388268381L166.31332344215372,48.06822657866084L166.80246093393555,47.971051012866056L166.924745306881,47.87442257426242L167.2100755104204,47.7783367030455L167.86225883279616,47.68278888993399L167.94378174809313,47.58777467547152L168.18835049398405,47.49328964934094L168.35139632457796,47.399329449688736L169.00357964695374,47.30588976246175L169.69652442697796,47.21296632075374L170.51175357994768,47.120554904163164L171.2454598176204,47.02865133816105L171.32698273291737,46.93725149347011L171.40850564821434,47.01019062766053L171.5307900211598,46.919257645111365L171.65307439410523,47.15504214452081L172.34601917412948,47.226797330790895L172.7943952082628,47.13577276931911L173.36505561534162,47.04523930811275L174.58789934479617,46.95519302839868L174.6694222600931,46.86563005298046L175.64769724365675,46.776546545689676L175.8107430742507,46.68793871084382L175.89226598954767,46.59980279271404L176.13683473543858,46.51213507500066L176.25911910838403,46.424931880316706L176.340642023681,46.338189569680544L176.70749514251736,46.251904542015915L176.99282534605675,46.16607323365852L177.52272429548705,46.08069211787258L177.84881595667494,45.99575770437337L178.37871490610522,45.91126653885727L178.46023782140222,45.82721520253969L178.58252219434766,45.74360031169913L179.23470551672344,45.66041851722923L179.43851280496585,45.57766650419739L179.5200357202628,45.49534099140931L179.92765029674766,45.413438730981774L180.0906961273416,45.331956507920125L181.27277839914765,45.250891139703555L181.47658568739007,45.170239475875704L181.7619158909295,45.089998397642454L183.55542002746282,45.01016481747442L183.8815116886507,44.93073567871683L184.16684189219006,44.85170795520387L184.329887722784,44.773078650879874L184.77826375691734,44.69484479942619L185.02283250280826,44.61700346389204L185.26740124869917,44.539551736332825L186.16415331696584,44.46248673745254L186.61252935109917,44.385805616252235L186.81633663934159,44.30950554968268L187.18318975817797,44.23358374230284L187.22395121582645,44.15803742594355L187.71308870760825,44.082863859375486L188.16146474174158,44.00806032798192L188.28374911468703,43.93362414343705L188.6913636911719,43.85955264338836L190.6071522006507,43.785843191143286L190.8109594888931,43.71249317536148L190.85172094654158,43.639500009750066L191.25933552302644,43.56686113276484L194.23492193136582,43.494574007314085L194.68329796549915,43.42263612046817L194.72405942314765,43.49851001754716L194.8055823384446,43.42683499026417L194.88710525374157,43.502408261798315L195.009389626687,43.43099366420021L195.05015108433554,43.43309468450087L196.06918752554765,43.36214898358024L196.27299481379006,43.29154058428801L196.39527918673554,43.22126712193565L196.7213708479234,43.151326253882196L197.16974688205673,43.081715659277734L197.5366000008931,43.01243303881059L197.65888437383853,42.94347611445792L197.69964583148703,42.87484262923997L198.31106769621428,42.806530346978256L198.96325101859006,42.81036226341195L199.20781976448097,42.742482590877614L199.37086559507492,42.6749184796945L199.73771871391128,42.60766776805803L199.81924162920825,42.5407283138601L200.1860947480446,42.474097994465346L200.34914057863853,42.4077747064905L200.7975166127719,42.34175636558646L201.8573145116325,42.62999243752765L202.22416763046883,42.7755817921027L202.8355894951961,42.70889367564847L203.12091969873552,42.6425095214392L203.3654884446264,42.57642728902442L203.52853427522035,42.51064495617109L203.56929573286882,42.44516051866025L204.34376342819004,42.379971990087704L204.46604780113552,42.31507740166611L205.93346027648096,42.25047480202988L206.17802902237187,42.18616225704327L206.78945088709915,42.122137849610475L206.8709738023961,42.05839967948812L207.56391858242034,41.99494586310116L207.60468004006884,41.93177453335952L208.37914773539006,41.86888383947926L208.41990919303854,41.80627194680397L208.542193565984,41.74393703663001L208.90904668482034,41.68187730603328L209.35742271895367,41.62009096769872L210.3764591601658,41.558576249751304L210.49874353311125,41.49733139559003L210.94711956724458,41.436354663723506L211.06940394019006,41.37564432760785L211.15092685548703,41.31519867548674L211.232449770784,41.25501601023326L211.7215872625658,41.195094649194345L212.41453204259005,41.13543292403608L213.27052265320822,41.615624007516566L213.5558528567476,41.82439297012733L213.8819445179355,41.763358442776486L214.04499034852944,41.7025862231315L214.33032055206883,41.64207465406193L214.37108200971733,41.58182209236207L214.4118434673658,41.52182690860506L214.81945804385063,41.462087486997795L215.87925594271127,41.4026022252403L216.08306323095368,41.343369534383314L216.73524655332943,41.284387838691146L217.18362258746276,41.225655575503275L217.3466684180567,41.36558565350491L217.38742987570518,41.306830693920936L217.71352153689307,41.314248759925505L217.95809028278399,41.25581505828389L218.08037465572943,41.19762603050723L218.4472277745658,41.402124998825926L218.61027360515973,41.67127822743545L218.89560380869912,41.677697044341635L218.9363652663476,42.01059069817097L219.18093401223854,42.27690657359422L219.42550275812943,42.672310701928005L219.5070256734264,42.87110201485233L219.62931004637184,43.13396563668088L221.05596106406884,43.07179461079852L221.54509855585064,43.0098788729258L222.31956625117184,42.94821688467934L222.40108916646884,42.88680712000629L223.257079777087,42.82564806506182L224.07230893005672,42.76473821808623L225.05058391362033,42.70407608928531L225.17286828656577,42.64366020071137L225.7027672359961,42.58348908614501L226.02885889718397,42.523561290979906L226.39571201602033,42.46387537210764L226.51799638896577,42.40442989780409L226.59951930426274,42.345223447618075L226.6402807619112,42.28625461225948L228.43378489844457,42.227521993491216L228.6783536443355,42.169024204019905L228.80063801728093,42.11075986738959L229.08596822082032,42.05272761787614L229.61586717025065,41.99492610038261L229.6973900855476,42.06324596377061L229.7381515431961,42.194147930761L230.02348174673548,42.13625272034014L230.75718798440823,42.078585995646094L231.69470151032334,42.02114643544248L231.89850879856576,41.9639327286558L232.71373795153548,41.90694357427698L232.79526086683245,41.850177681265734L233.03982961272334,41.793633768454946L234.09962751158395,41.737310564456486L234.30343479982636,41.68120680756803L234.99637957985064,41.625321245681114L235.73008581752333,41.56965263618977L236.05617747871125,41.51419974590137L236.99369100462636,41.45896135094656L237.1567368352203,41.40393623669201L237.31978266581422,41.34912319765336L237.36054412346277,41.29452103740908L238.42034202232333,41.24012856851559L239.3578555482385,41.1859446124229L240.53993782004457,41.193116790352306L240.98831385417787,41.13919903879266L241.64049717655365,41.08548687866246L242.21115758363243,41.03197916303143L242.2519190412809,41.03948047836762L243.06714819425062,40.9862325707617L244.04542317781426,40.93318626916188L244.69760650019,41.06199598425231L245.47207419551123,41.19031971452747L245.59435856845667,41.378544298049434L245.7981658566991,41.385158788321384L247.30633978969303,41.33153070945126L247.59166999323241,41.278103554230675L247.75471582382636,41.22487622218692L247.99928456971725,41.171847620864234L248.2438533156082,41.11901666575092L248.4476606038506,41.066382280207826L248.56994497679605,41.013943395396524L248.65146789209302,40.96169895020868L249.6297428756567,40.909647891196606L249.95583453684455,40.85778917250448L250.64877931686877,40.8061217557992L250.8525866051112,40.75464461020369L250.93410952040819,40.70335671223002L251.42324701219,40.65225704571261L251.50476992748696,40.60134460174374L251.74933867337785,40.55061837860822L252.2384761651597,40.50007738171957L252.44228345340213,40.44972062355717L252.84989802988696,40.399547123602794L253.2575126063718,40.349555908279434L254.39883342052937,40.29974601088935L254.48035633582634,40.25011647155375L254.64340216642026,40.200666337152825L255.25482403114756,40.15139466126613L256.92604379473545,40.1023005041138L257.0483281676809,40.05338293249878L257.7820344053536,40.17912971809365L258.51574064302633,40.478688765135985L259.2086854230506,40.42909921030458L259.33096979599605,40.379686847145535L259.53477708423844,40.33045075224866L259.7385843724809,40.28139000860426L260.4722906101536,40.23250370554797L260.5130520678021,40.183790938705734L261.2059968478263,40.13525080993997L261.3282812207718,40.08688242729519L261.6136114243112,40.03868490494588L262.7141707808203,39.99065736314275L262.79569369611727,39.94279892816207L263.08102389965666,39.89510873225271L263.8147301373294,39.84758591358643L264.18158325616577,39.800229616206735L264.5484363750021,39.75303898997901L264.95605095148693,39.70601319054149L265.4044269856203,39.65915137925589L265.5674728162142,39.66923127822709L265.6082342738627,39.62256791272062L266.38270196918387,39.576066494199L266.5865092574263,39.52972620421096L266.6680321727233,39.48354622980687L266.83107800331726,39.437525763491934L267.1979311221536,39.39166400318122L267.9316373598263,39.34596015215373L268.74686651279603,39.30041341900845L268.9506738010384,39.255023017619116L269.3175269198748,39.20978816709104L269.56209566576575,39.16470809171708L269.60285712341425,39.11978202093531L269.76590295400814,39.07500918928588L269.8881873269536,39.030388836368914L270.7849393952203,38.98592020680312L271.51864563289297,38.94160255018388L271.6816914634869,38.897435121042875L271.88549875172936,38.85341717880737L272.53768207410513,38.80954798775968L272.6192049894021,38.76582681699828L273.0268195658869,38.7222529403976L273.2713883117778,38.67882563656961L273.35291122707486,38.63554418882523L273.59747997296574,38.59240788513543L273.6790028882627,38.54941601809469L273.7605258035597,38.5065678848824L274.24966329534146,38.46386278722603L274.3311862106384,38.42130003136485L274.4127091259354,38.378878928012924L275.3502226518506,38.33659879232362L275.7170757706869,38.29445894385348L275.83936014363235,38.25245870652721L276.4915434660081,38.210597408602574L276.93991950014146,38.16887438263547L277.02144241543846,38.12728896544627L277.26601116132935,38.08584049808484L277.7959101107597,38.04452832579795L277.99971739900207,38.003351797994895L278.28504760254145,37.96231026821535L278.52961634843234,37.9214030940959L279.0595152978627,37.88062963733799L280.1193131967233,37.83998926367605L281.05682672263845,37.79948134284511L281.21987255323234,37.75910524854989L281.26063401088084,37.71886035843299L281.5459642144203,37.67874605404455L282.2389089944445,37.63876172081139L282.68728502857783,37.59890674800653L283.13566106271116,37.55918052871929L283.42099126625055,37.51958245982541L283.66556001214144,37.48011194195807L284.6438349957051,37.494188290192284L286.88571516637177,37.45485862386276L287.0487609969657,37.41565509340856L287.578659946396,37.37657711252461L288.1900818111233,37.33762409852986L288.51617347231115,37.29879547233952L288.55693492995965,37.26009065843699L288.7199807605536,37.221509084846375L289.12759533703843,37.18305018310578L289.5352099135233,37.14471338824014L289.57597137117176,37.106498138734075L289.61673282882026,37.06840387650612L289.94282449000815,37.030430046881996L290.7580536429778,36.992576098568996L291.7363286265414,36.95484148362996L292.02165883008087,36.91722565745839L292.1439432030263,36.87972807875202L292.55155777951114,36.84234820948894L292.91841089834753,36.805085514902075L293.040695271293,36.76793946345509L293.44830984777786,36.730909526817584L293.65211713602025,36.693995179841245L295.1195296113657,36.65719590053579L295.486382730202,36.62051117004515L295.567905645499,36.583940472624604L295.73095147609297,36.54748329561638L295.9755202219839,36.51113912942762L296.09780459492936,36.47490746750704L296.38313479846875,36.43878780632217L296.7092264596566,36.40277964533725L296.831510832602,36.36688248699049L297.1576024937899,36.33109583667251L297.3206483243839,36.295419202704274L297.48369415497785,36.25985209631523L298.42120768089296,36.22439403162205L298.5842535114869,36.189044525607244L298.8695837150263,36.15380309809814L299.03262954562024,36.118669271745894L299.48100557975357,36.08364257200474L299.9701430715354,36.04872252711147L300.6223263939111,36.013908668065206L301.6413628351233,35.97920052860684L302.2527846998505,35.94459764519945L302.82344510692934,35.91009955700816L303.14953676811723,35.87570580588073L303.47562842930506,35.84141593632762L303.72019717519595,35.80722949550322L303.76095863284445,35.77314603318624L304.82075653170506,35.73916510176109L305.3914169387839,35.705286256198654L306.41045337999594,35.67150905403814L307.1033981600202,35.637833055367956L307.59253565180205,35.60425782280799L307.7148200247475,35.57078292149081L307.95938877063844,35.68884545966239L308.6930950083111,35.705697774597034L308.7746179236081,35.67212062927038L309.5083241612808,35.638643291424685L309.67136999187477,35.605265333387194L310.52736060249293,35.57198632992156L310.69040643308693,35.53880585820992L310.97573663662627,35.50572349783666L311.5056355860566,35.47273883077028L311.7502043319475,35.439851441347486L312.32086473902626,35.40706091625583L312.8100022308081,35.37436684451707L313.4214240955354,35.3417688174714L313.74751575672326,35.30926642876041L313.78827721437176,35.276859274311015L314.6850292826384,35.2445469523197L314.84807511323237,35.21232906323663L315.41873552031115,35.18020520974926L315.9078730120929,35.14817499676732L315.9486344697414,35.1162380314073L316.2339646732808,35.18340711172497L316.8046250803596,35.151462255804205L317.0491938262505,35.11961004228022L317.3345240297899,35.08785008460494L317.4160469450869,35.05618199837415L317.78290006392325,35.024605401312634L317.8644229792202,34.99311991325934L317.9051844368687,34.96172515615298L318.6796521321899,34.93042075401763L318.80193650513536,34.899206332947784L319.16878962397175,34.8680815210951L319.698688573402,34.837045948653305L320.67696355696563,34.80609924784466L321.32914687934147,34.7752410529061L321.77752291347474,34.74447100007526L322.51122915114746,34.713788727577025L322.91884372763235,34.683193875609724L322.9596051852808,34.65268608633187L323.20417393117174,34.62226500384883L323.4895041347111,34.59193027419949L323.652549965305,34.56168154534316L323.6933114229535,34.531518467146626L323.734072880602,34.50144069137124L324.6308249488687,34.47144787166006L324.6715864065172,34.441539663525155L324.8346322371111,34.41171572433515L324.91615515240807,34.381975713302474L325.28300827124446,34.35231929147126L325.4460541018384,34.322746121704746L326.62813637364445,34.34144864114847L326.66889783129295,34.55269633058151L327.0357509501293,34.52282267270456L327.1580353230747,34.493032467820086L327.4433655266141,34.463325381570876L327.85098010309895,34.43370108137964L327.89174156074745,34.404159236437685L327.97326447604445,34.37469951769294L328.1770717642869,34.34532159783823L328.4216405101778,34.316025151300124L328.5846863407717,34.28680985422689L328.66620925606867,34.25767538447743L329.31839257844445,34.22862142161022L329.56296132433533,34.199647646871504L329.60372278198383,34.17075374318492L329.9298144431717,34.141939395139865L330.70428213849294,34.11320428898089L331.39722691851716,34.084548112596885L332.45702481737777,34.05597055550997L333.39453834329294,34.02747130886534L333.9244372927232,33.99905006542026L334.04672166566866,33.97070651953367L335.3103268527717,34.03697080280191L335.3510883104202,34.10305436170278L336.003271632796,34.07459061012567L336.04403309044443,34.04620430569714L336.45164766692926,34.01789514690653L336.5739320398747,33.98966283380317L336.6554549551717,33.96150706798556L337.10383098930504,33.93342755259182L337.348399735196,33.90542399228976L337.4706841081414,33.87749609326686L337.63372993873537,33.849643563220575L338.36743617640803,33.82186611134889L338.40819763405653,33.79416344834011L338.5712434646505,33.76653528636411L338.693527837596,33.73898133906196L338.7750507528929,33.71150132153744L339.3457111599717,33.68409495034709L339.50875699056564,33.656761943491034L339.957133024699,33.67604874684755L340.0794173976444,33.648776216981794L340.8946465506141,33.621576441873316L341.220738211802,33.59444914433799L341.62835278828686,33.567394048594586L341.66911424593536,33.54041088025577L342.11749028006864,33.51349936631933L343.0550038059838,33.48665923515973L343.25881109422625,33.45989021651916L343.9517558742505,33.47939233889383L345.7452600107838,33.452680594024756L345.7860214684323,33.42603938120851L345.94906729902624,33.39946843473621L346.1121131296202,33.372967490228476L346.8458193672929,33.34653628462706L347.0903881131838,33.32017455618704L348.8431307920686,33.29388204446826L349.1692224532565,33.267658490327285L349.49531411444445,33.24150363590935L349.5360755720929,33.21541722464039L350.2290203521171,33.189399001219265L350.75891930154745,33.16344871160934L350.9219651321414,33.13756610303141L351.3703411662747,33.11175092395526L351.8594786580565,33.08600292409221L351.981763031002,33.06032185438764L352.06328594629895,33.03470746701299L352.2263317768929,33.00915951535884L352.5524234380808,32.98367775402669L354.9981108969899,32.95826193882195L355.2426796428808,32.93291182674662L355.2834411005293,32.90762717599154L355.9763858805535,32.927759142268094L356.2617160840929,32.90252360865894L357.199229610008,32.87735302670334L357.362275440602,32.852247158512256L357.8106514747353,32.827205767353924L357.93293584768077,32.80222861764641L358.62588062770504,32.77731547495116L358.87044937359593,32.75246610596516L359.4003483230262,32.727680278515166L360.21557747599593,32.70295776155005L360.58243059483226,32.67829832513453L361.234613917208,32.65370174044201L361.31613683250504,32.629167779748094L361.68298995134137,32.60469621642434L362.0498430701777,32.58028682493081L362.3759347313656,32.555939380810415L363.1911638843353,32.531653660681876L363.27268679963225,32.50742944223349L363.3949711725777,32.48326650421672L363.4764940878747,32.45916462643986L363.7210628337656,32.43512358976152L364.2102003255474,32.41114317608475L364.2509617831959,32.38722316835036L364.5362919867353,32.363363350531344L364.65857635968075,32.33956350762604L364.8623836479232,32.315823425652624L365.1477138514625,32.292142891642996L365.2292367667595,32.268521693636245L367.30807110683224,32.244959620673505L367.7564471409656,32.221456462791345L367.878731513911,32.19801201101652L368.0825388021535,32.174626057359234L368.73472212452924,32.15129839480864L368.8977679551232,32.128028817325905L368.93852941277163,32.10481711983907L369.02005232806863,32.08166309823729L369.4276669045535,32.05856654936553L369.5907127351474,32.03552727101803L369.75375856574135,32.012545061933935L370.12061168457774,31.989619721791L370.1613731422262,31.966751051200394L370.3651804304686,31.943938851701123L370.52822626106257,31.921182925755083L370.56898771871107,31.898483076740835L371.18040958343835,31.87583910894929L372.44401477054134,31.853250827577764L372.9331522623232,31.83071803872479L373.21848246586256,31.808240549385303L373.422289754105,31.785818167444702L373.9929501611838,31.763450701674984L374.3598032800201,31.741137961728157L374.9712251447474,31.718879758132278L375.4196011788807,31.696675902285822L375.7049313824201,31.674526206452946L375.7456928400686,31.6524304837585L376.112545958905,31.630388548183063L377.6614813495474,31.651881535033926L377.7837657224929,31.673322307633832L377.86528863778983,31.65129183104921L377.9875730107353,31.62931476671424L378.0283344683838,31.60739093157905L378.1913802989777,31.58552014342605L379.4957469437292,31.650294056213163L380.06640735080805,31.758176815841562L381.1669667073171,31.73609521744007L381.41153545320805,31.714066834326594L381.57458128380193,31.692091485349753L382.30828752147465,31.670168990176542L382.5120948097171,31.648299169287505L383.1235166744444,31.626481843971884L383.2458010473898,31.604716836323966L383.36808542033526,31.583003969237677L384.2240760309535,31.561343066402546L384.67245206508676,31.58269681732646L385.2023510145171,31.56106654168289L385.2431124721656,31.539487879742538L385.6507270486504,31.51796065774795L385.77301142159587,31.496484702717666L385.9360572521898,31.47505984244169L386.6290020322141,31.453685905477766L386.71052494751103,31.43236272114682L386.8328093204565,31.41109011952835L387.68879993107464,31.389867931456834L387.77032284637164,31.368695988517413L387.9741301346141,31.347574123041035L388.4225061687474,31.326502168101367L388.74859782993525,31.305479957509966L388.9116436605292,31.284507325812527L389.60458844055347,31.263584108284693L389.84915718644436,31.242710140927947L390.2567717629292,31.221885260466024L390.33829467822613,31.20110930434025L390.58286342411714,31.180382110706418L390.7866707123595,31.159703518430135L390.99047800060197,31.139073367083512L391.1127623735474,31.118491496940777L391.72418423827463,31.097957748974796L391.76494569592313,31.077471964853185L392.86550505243224,31.057033986934492L393.1915967136201,31.036643658264232L393.59921129010496,31.016300822571612L394.0475873242383,30.99600532426536L394.9035779348565,30.975757008430104L395.5965227148807,30.955555720823217L395.6372841725292,30.93540130787014L396.9416508172807,30.915293616661906L396.9824122749292,30.89523249495072L397.2269810208201,30.87521779114686L399.34657681854134,30.855249354314683L399.4280997338383,30.835327034169676L399.71342993737767,30.815450681074434L399.8357143103231,30.795620146035414L400.12104451386256,30.77583528069932L401.22160387037167,30.756095937350008L402.0775944809898,30.736401968904726L402.4852090574746,30.71675322891068L403.1373923798504,30.697149571541928L403.2189152951474,30.67759085159604L403.3004382104443,30.65807692449042L403.50424549868677,30.6386076462594L404.80861214343827,30.61918287355053L405.0124194316807,30.59980246362194L405.46079546581404,30.580466274338363L405.50155692346254,30.561174164168147L405.54231838111104,30.54192599218086L405.6646027540565,30.522721618042528L406.3167860764322,30.503560902013817L407.4173454329413,30.484443704946496L407.53962980588676,30.46536988827974L408.3548589588565,30.44633931403821L408.59942770474737,30.42735184482778L408.64018916239587,30.40840734383316L409.6999870612565,30.389505674814707L409.98531726479587,30.370646702105162L410.27064746833526,30.351830290607047L411.61577557073525,30.33305630578939L411.7380599436807,30.314324613684743L412.5125276390019,30.295635080886516L412.5532890966504,30.276987574545835L412.92014221548675,30.258381962368397L413.2054724190262,30.239818112612006L413.32775679197164,30.221295894083564L413.613086995511,30.202815176136127L413.73537136845647,30.184375828665903L414.50983906377763,30.16597772210991L414.63212343672313,30.147620727442785L415.08049947085647,30.129304716173987L415.52887550498974,30.111029560345155L415.93649008147463,30.09279513252752L416.01801299677163,30.074601305818717L416.0587744544201,30.056447953840657L416.1810588273656,30.038334950736086L417.1593338109291,30.020262171166628L417.3631410991716,30.002229490309517L417.40390255682007,29.984236783855536L417.566948387414,29.9662839280059L418.34141608273524,29.948370799469714L418.3821775403837,29.93049727546154L418.74903065922007,29.912663233698893L419.07512232040796,29.894868552399167L419.5642598121898,29.877113110277698L421.0724337451837,29.859396786544632L421.1947181181292,29.841719460902997L421.56157123696556,29.82408101354577L421.602332694614,29.806481325153534L421.84690144050495,29.788920276891808L421.9284243558019,29.771397750409022L422.2952774746382,29.7539136278336L423.7219284923352,29.736467791771787L423.92573578057767,29.71906012530512L424.8632493064928,29.701690511988183L424.9855336794382,29.684358835845963L425.10781805238366,29.667064981371677L425.4746711712201,29.649808833524094L426.61599198537766,29.632590277725946L427.59426696894127,29.615409199860522L428.00188154542616,29.598265486270318L430.24376171609276,29.581159023754235L430.48833046198365,29.56408969956511L430.65137629257765,29.547057401408207L430.7736606655231,29.53006201743779L431.2220366996564,29.51310343625624L431.3443210726019,29.496181546910496" style="fill: none;" fill="none"></path></g></g></g></g><g opacity="0.2"><g><g><g><path stroke="rgb(0, 119, 187)" stroke-width="2px" d="M24.504212283075134,196.2312100043198L24.748781028966043,145.54038685388267L25.400964351341802,221.5766170474253L25.48248726663877,221.5766170474253L25.604771639584225,196.2312100043198L26.053147673717554,196.2312100043198L26.66456953844483,297.6128585712505L26.78685391139028,196.2312100043198L27.602083064359977,170.88579389698822L28.091220556141796,94.84955463921952L28.90644970911149,196.2312100043198L30.088531980917548,18.813315381450828L30.210816353863006,120.19496168232506L30.577669472699366,170.88579389698822L31.229852795075125,221.5766170474253L31.311375710372097,170.88579389698822L33.104879846905426,120.19496168232506L33.30868713514785,94.84955463921952L33.92010899987512,196.2312100043198L34.164677745766035,170.88579389698822L34.36848503400845,94.84955463921952L34.653815237547846,196.2312100043198L34.898383983438755,272.26744472997547L36.325035001135724,18.813315381450828L36.40655791643269,18.813315381450828L36.73264957762057,18.813315381450828L37.58864018823875,170.88579389698822L37.91473184942663,196.2312100043198L38.72996100239633,94.84955463921952L40.93107971541451,94.84955463921952L40.97184117306299,120.19496168232506L41.66478595308723,18.813315381450828L41.78707032603269,18.813315381450828L41.90935469897814,18.813315381450828L42.52077656370541,145.54038685388267L42.64306093665087,170.88579389698822L42.683822394299355,221.5766170474253L43.0914369707842,246.9220331547569L43.865904666105415,18.813315381450828L44.72189527672359,18.813315381450828L45.414840056747835,18.813315381450828L45.61864734499026,18.813315381450828L46.719206701499346,221.5766170474253L47.1268212779842,221.5766170474253L47.3713900238751,170.88579389698822L47.656720227414496,221.5766170474253L47.69748168506298,170.88579389698822L49.04260978746298,69.50414759611398L49.12413270275995,18.813315381450828L49.61327019454177,18.813315381450828L49.89860039808116,18.813315381450828L49.93936185572965,196.2312100043198L50.020884771026616,170.88579389698822L50.143169143972074,145.54038685388267L50.22469205926904,94.84955463921952L50.71382955105086,18.813315381450828L51.12144412753571,18.813315381450828L52.87418680642055,18.813315381450828L53.20027846760843,120.19496168232506L53.52637012879631,94.84955463921952L53.89322324763267,18.813315381450828L54.42312219706298,18.813315381450828L54.58616802765692,18.813315381450828L54.95302114649328,18.813315381450828L55.116066977087215,18.813315381450828L55.19758989238419,18.813315381450828L55.27911280768116,18.813315381450828L55.56444301122055,44.15872242455637L55.76825029946298,18.813315381450828L55.84977321475994,69.50414759611398L56.05358050300237,145.54038685388267L56.13510341829934,170.88579389698822L56.29814924889327,94.84955463921952L56.46119507948722,18.813315381450828L56.70576382537813,18.813315381450828L56.746525283026614,94.84955463921952L57.684038808941764,18.813315381450828L57.847084639535694,18.813315381450828L59.19221274193569,69.50414759611398L59.477542945475086,94.84955463921952L59.722111691366,170.88579389698822L60.29277209844478,18.813315381450828L60.45581792903872,18.813315381450828L60.74114813257812,170.88579389698822L60.82267104787509,196.2312100043198L61.148762709062964,69.50414759611398L61.719423116141755,18.813315381450828L61.76018457379024,18.813315381450828L62.16779915027509,18.813315381450828L62.29008352322054,18.813315381450828L62.6569366420569,18.813315381450828L62.98302830324477,18.813315381450828L63.34988142208115,18.813315381450828L63.39064287972963,18.813315381450828L63.635211625620535,18.813315381450828L63.67597308326903,18.813315381450828L63.879780371511444,18.813315381450828L64.61348660918416,120.19496168232506L64.73577098212964,44.15872242455637L65.102624100966,18.813315381450828L66.32546783042054,18.813315381450828L66.85536677985084,18.813315381450828L67.09993552574174,18.813315381450828L67.2222198986872,18.813315381450828L67.30374281398416,18.813315381450828L67.46678864457812,18.813315381450828L67.71135739046902,18.813315381450828L67.91516467871143,44.15872242455637L68.3227792551963,18.813315381450828L68.5673480010872,18.813315381450828L68.77115528932963,18.813315381450828L69.17876986581447,18.813315381450828L70.89075108705083,18.813315381450828L71.05379691764477,18.813315381450828L71.09455837529326,18.813315381450828L71.13531983294175,18.813315381450828L71.86902607061447,221.5766170474253L72.39892502004477,69.50414759611398L72.92882396947506,44.15872242455637L73.98862186833568,145.54038685388267L74.47775936011749,94.84955463921952L74.92613539425082,18.813315381450828L75.04841976719628,18.813315381450828L75.17070414014174,18.813315381450828L75.98593329311144,44.15872242455637L76.23050203900233,196.2312100043198L76.51583224254173,18.813315381450828L76.76040098843265,18.813315381450828L77.4125843108084,18.813315381450828L77.53486868375386,18.813315381450828L77.98324471788719,18.813315381450828L78.10552909083265,18.813315381450828L78.22781346377809,18.813315381450828L78.26857492142658,69.50414759611398L80.22512488855385,18.813315381450828L80.34740926149931,18.813315381450828L80.46969363444477,18.813315381450828L80.51045509209324,44.15872242455637L81.40720716035992,18.813315381450828L81.89634465214172,18.813315381450828L82.30395922862657,18.813315381450828L82.46700505922051,18.813315381450828L83.48604150043263,18.813315381450828L83.52680295808112,18.813315381450828L83.97517899221445,196.2312100043198L84.30127065340233,196.2312100043198L84.46431648399627,69.50414759611398L84.54583939929324,69.50414759611398L85.85020604404475,18.813315381450828L86.0132518746387,18.813315381450828L87.03228831585082,18.813315381450828L87.68447163822657,44.15872242455637L87.72523309587505,69.50414759611398L88.33665496060233,18.813315381450828L88.49970079119626,18.813315381450828L89.15188411357202,18.813315381450828L89.19264557122051,18.813315381450828L90.08939763948717,18.813315381450828L90.29320492772959,18.813315381450828L90.49701221597202,18.813315381450828L90.61929658891746,18.813315381450828L90.8231038771599,18.813315381450828L90.94538825010535,18.813315381450828L91.43452574188717,18.813315381450828L91.76061740307505,94.84955463921952L92.04594760661445,145.54038685388267L92.33127781015384,44.15872242455637L92.6981309289902,18.813315381450828L92.86117675958414,18.813315381450828L92.9426996748811,18.813315381450828L93.02422259017808,18.813315381450828L93.14650696312353,18.813315381450828L93.43183716666293,18.813315381450828L93.79869028549929,18.813315381450828L94.20630486198414,196.2312100043198L94.36935069257808,120.19496168232506L94.45087360787504,69.50414759611398L94.5731579808205,44.15872242455637L94.77696526906293,18.813315381450828L94.89924964200837,18.813315381450828L94.94001109965686,18.813315381450828L95.75524025262656,18.813315381450828L96.12209337146292,18.813315381450828L96.36666211735383,18.813315381450828L96.65199232089323,18.813315381450828L96.69275377854171,18.813315381450828L97.05960689737807,18.813315381450828L97.34493710091746,18.813315381450828L98.20092771153564,18.813315381450828L98.36397354212959,18.813315381450828L98.77158811861443,18.813315381450828L98.93463394920836,18.813315381450828L99.30148706804474,18.813315381450828L99.83138601747504,18.813315381450828L99.95367039042048,69.50414759611398L100.1982391363114,145.54038685388267L100.27976205160836,170.88579389698822L101.66565161165686,18.813315381450828L101.91022035754776,18.813315381450828L102.60316513757199,18.813315381450828L103.01077971405685,18.813315381450828L103.13306408700231,18.813315381450828L103.21458700229927,18.813315381450828L103.948293239972,18.813315381450828L104.5189536470508,18.813315381450828L104.60047656234775,18.813315381450828L105.33418280002049,94.84955463921952L105.49722863061442,170.88579389698822L105.8233202918023,145.54038685388267L106.51626507182654,18.813315381450828L106.76083381771745,18.813315381450828L107.73910880128109,18.813315381450828L108.26900775071138,18.813315381450828L108.39129212365685,18.813315381450828L108.43205358130533,18.813315381450828L108.5135764966023,18.813315381450828L108.59509941189927,18.813315381450828L108.75814524249321,18.813315381450828L108.92119107308714,18.813315381450828L109.20652127662653,18.813315381450828L109.81794314135381,18.813315381450828L111.20383270140229,18.813315381450828L111.36687853199624,18.813315381450828L111.65220873553562,18.813315381450828L112.019061854372,44.15872242455637L112.50819934615382,18.813315381450828L112.91581392263865,18.813315381450828L112.99733683793562,18.813315381450828L113.07885975323258,18.813315381450828L113.28266704147502,18.813315381450828L113.40495141442048,18.813315381450828L113.73104307560834,18.813315381450828L113.8940889062023,18.813315381450828L114.70931805917199,18.813315381450828L114.91312534741441,18.813315381450828L114.9538868050629,18.813315381450828L115.03540972035985,18.813315381450828L115.15769409330534,18.813315381450828L115.32073992389927,18.813315381450828L115.36150138154775,18.813315381450828L115.64683158508713,18.813315381450828L115.76911595803259,18.813315381450828L115.97292324627502,18.813315381450828L116.74739094159622,18.813315381450828L117.15500551808108,18.813315381450828L117.39957426397199,44.15872242455637L117.64414300986289,69.50414759611398L117.80718884045685,44.15872242455637L118.29632633223865,18.813315381450828L118.33708778988712,18.813315381450828L119.35612423109926,246.9220331547569L119.7229773499356,170.88579389698822L121.1496283676326,18.813315381450828L121.19038982528107,18.813315381450828L121.27191274057805,18.813315381450828L123.06541687711136,18.813315381450828L123.39150853829925,18.813315381450828L123.67683874183864,18.813315381450828L123.7583616571356,18.813315381450828L123.8398845724326,18.813315381450828L124.04369186067501,18.813315381450828L125.06272830188712,18.813315381450828L125.10348975953559,18.813315381450828L125.51110433602045,44.15872242455637L125.59262725131742,44.15872242455637L125.79643453955987,18.813315381450828L126.36709494663863,18.813315381450828L126.61166369252956,18.813315381450828L126.9785168113659,18.813315381450828L127.58993867609318,18.813315381450828L127.75298450668711,18.813315381450828L127.8345074219841,18.813315381450828L128.85354386319622,18.813315381450828L129.34268135497803,18.813315381450828L129.75029593146286,18.813315381450828L129.9948646773538,18.813315381450828L130.68780945737802,18.813315381450828L130.93237820326894,18.813315381450828L130.9731396609174,18.813315381450828L131.54380006799622,18.813315381450828L131.78836881388713,18.813315381450828L131.99217610212955,18.813315381450828L132.92968962804468,18.813315381450828L133.2150198315841,18.813315381450828L133.41882711982652,18.813315381450828L133.94872606925682,18.813315381450828L134.2340562727962,18.813315381450828L134.8454781375235,18.813315381450828L135.3346156293053,18.813315381450828L135.45690000225073,18.813315381450828L136.02756040932954,18.813315381450828L137.4542114270265,18.813315381450828L137.49497288467498,18.813315381450828L137.53573434232348,18.813315381450828L138.2694405799962,18.813315381450828L138.88086244472348,18.813315381450828L140.83741241185075,69.50414759611398L141.2042655306871,44.15872242455637L141.57111864952347,18.813315381450828L141.8156873954144,18.813315381450828L142.67167800603255,18.813315381450828L142.75320092132952,145.54038685388267L142.79396237897802,94.84955463921952L144.7097508884568,18.813315381450828L145.03584254964466,18.813315381450828L145.97335607555982,18.813315381450828L146.34020919439618,18.813315381450828L146.50325502499012,44.15872242455637L146.66630085558407,120.19496168232506L147.1554383473659,44.15872242455637L147.27772272031135,18.813315381450828L147.6038143814992,18.813315381450828L147.72609875444465,18.813315381450828L148.70437373800831,18.813315381450828L148.86741956860223,18.813315381450828L148.9489424838992,18.813315381450828L150.09026329805678,18.813315381450828L151.02777682397192,18.813315381450828L151.6391986886992,18.813315381450828L151.96529034988708,18.813315381450828L152.1690976381295,44.15872242455637L152.37290492637192,44.15872242455637L152.61747367226286,18.813315381450828L153.2696569946386,18.813315381450828L154.00336323231133,18.813315381450828L154.04412468995983,18.813315381450828L154.3294548934992,18.813315381450828L154.45173926644466,18.813315381450828L155.4300142500083,18.813315381450828L155.55229862295374,69.50414759611398L155.83762882649316,18.813315381450828L155.9599131994386,18.813315381450828L156.0006746570871,18.813315381450828L156.08219757238405,18.813315381450828L156.12295903003255,18.813315381450828L157.14199547124468,18.813315381450828L157.50884859008102,18.813315381450828L158.48712357364468,18.813315381450828L158.81321523483254,18.813315381450828L159.38387564191132,18.813315381450828L159.42463709955982,18.813315381450828L160.11758187958404,18.813315381450828L161.29966415139012,18.813315381450828L161.3811870666871,18.813315381450828L161.78880164317195,18.813315381450828L162.48174642319617,18.813315381450828L162.6855537114386,18.813315381450828L163.58230577970525,18.813315381450828L163.90839744089314,18.813315381450828L164.35677347502647,18.813315381450828L164.43829639032344,18.813315381450828L164.72362659386283,18.813315381450828L164.96819533975372,18.813315381450828L165.25352554329314,18.813315381450828L165.49809428918405,18.813315381450828L165.6203786621295,18.813315381450828L166.31332344215372,18.813315381450828L166.80246093393555,18.813315381450828L166.924745306881,18.813315381450828L167.2100755104204,18.813315381450828L167.86225883279616,18.813315381450828L167.94378174809313,18.813315381450828L168.18835049398405,18.813315381450828L168.35139632457796,18.813315381450828L169.00357964695374,18.813315381450828L169.69652442697796,18.813315381450828L170.51175357994768,18.813315381450828L171.2454598176204,18.813315381450828L171.32698273291737,18.813315381450828L171.40850564821434,69.50414759611398L171.5307900211598,18.813315381450828L171.65307439410523,120.19496168232506L172.34601917412948,69.50414759611398L172.7943952082628,18.813315381450828L173.36505561534162,18.813315381450828L174.58789934479617,18.813315381450828L174.6694222600931,18.813315381450828L175.64769724365675,18.813315381450828L175.8107430742507,18.813315381450828L175.89226598954767,18.813315381450828L176.13683473543858,18.813315381450828L176.25911910838403,18.813315381450828L176.340642023681,18.813315381450828L176.70749514251736,18.813315381450828L176.99282534605675,18.813315381450828L177.52272429548705,18.813315381450828L177.84881595667494,18.813315381450828L178.37871490610522,18.813315381450828L178.46023782140222,18.813315381450828L178.58252219434766,18.813315381450828L179.23470551672344,18.813315381450828L179.43851280496585,18.813315381450828L179.5200357202628,18.813315381450828L179.92765029674766,18.813315381450828L180.0906961273416,18.813315381450828L181.27277839914765,18.813315381450828L181.47658568739007,18.813315381450828L181.7619158909295,18.813315381450828L183.55542002746282,18.813315381450828L183.8815116886507,18.813315381450828L184.16684189219006,18.813315381450828L184.329887722784,18.813315381450828L184.77826375691734,18.813315381450828L185.02283250280826,18.813315381450828L185.26740124869917,18.813315381450828L186.16415331696584,18.813315381450828L186.61252935109917,18.813315381450828L186.81633663934159,18.813315381450828L187.18318975817797,18.813315381450828L187.22395121582645,18.813315381450828L187.71308870760825,18.813315381450828L188.16146474174158,18.813315381450828L188.28374911468703,18.813315381450828L188.6913636911719,18.813315381450828L190.6071522006507,18.813315381450828L190.8109594888931,18.813315381450828L190.85172094654158,18.813315381450828L191.25933552302644,18.813315381450828L194.23492193136582,18.813315381450828L194.68329796549915,18.813315381450828L194.72405942314765,69.50414759611398L194.8055823384446,18.813315381450828L194.88710525374157,69.50414759611398L195.009389626687,18.813315381450828L195.05015108433554,44.15872242455637L196.06918752554765,18.813315381450828L196.27299481379006,18.813315381450828L196.39527918673554,18.813315381450828L196.7213708479234,18.813315381450828L197.16974688205673,18.813315381450828L197.5366000008931,18.813315381450828L197.65888437383853,18.813315381450828L197.69964583148703,18.813315381450828L198.31106769621428,18.813315381450828L198.96325101859006,44.15872242455637L199.20781976448097,18.813315381450828L199.37086559507492,18.813315381450828L199.73771871391128,18.813315381450828L199.81924162920825,18.813315381450828L200.1860947480446,18.813315381450828L200.34914057863853,18.813315381450828L200.7975166127719,18.813315381450828L201.8573145116325,145.54038685388267L202.22416763046883,94.84955463921952L202.8355894951961,18.813315381450828L203.12091969873552,18.813315381450828L203.3654884446264,18.813315381450828L203.52853427522035,18.813315381450828L203.56929573286882,18.813315381450828L204.34376342819004,18.813315381450828L204.46604780113552,18.813315381450828L205.93346027648096,18.813315381450828L206.17802902237187,18.813315381450828L206.78945088709915,18.813315381450828L206.8709738023961,18.813315381450828L207.56391858242034,18.813315381450828L207.60468004006884,18.813315381450828L208.37914773539006,18.813315381450828L208.41990919303854,18.813315381450828L208.542193565984,18.813315381450828L208.90904668482034,18.813315381450828L209.35742271895367,18.813315381450828L210.3764591601658,18.813315381450828L210.49874353311125,18.813315381450828L210.94711956724458,18.813315381450828L211.06940394019006,18.813315381450828L211.15092685548703,18.813315381450828L211.232449770784,18.813315381450828L211.7215872625658,18.813315381450828L212.41453204259005,18.813315381450828L213.27052265320822,221.5766170474253L213.5558528567476,120.19496168232506L213.8819445179355,18.813315381450828L214.04499034852944,18.813315381450828L214.33032055206883,18.813315381450828L214.37108200971733,18.813315381450828L214.4118434673658,18.813315381450828L214.81945804385063,18.813315381450828L215.87925594271127,18.813315381450828L216.08306323095368,18.813315381450828L216.73524655332943,18.813315381450828L217.18362258746276,18.813315381450828L217.3466684180567,94.84955463921952L217.38742987570518,18.813315381450828L217.71352153689307,44.15872242455637L217.95809028278399,18.813315381450828L218.08037465572943,18.813315381450828L218.4472277745658,120.19496168232506L218.61027360515973,145.54038685388267L218.89560380869912,44.15872242455637L218.9363652663476,170.88579389698822L219.18093401223854,145.54038685388267L219.42550275812943,196.2312100043198L219.5070256734264,120.19496168232506L219.62931004637184,145.54038685388267L221.05596106406884,18.813315381450828L221.54509855585064,18.813315381450828L222.31956625117184,18.813315381450828L222.40108916646884,18.813315381450828L223.257079777087,18.813315381450828L224.07230893005672,18.813315381450828L225.05058391362033,18.813315381450828L225.17286828656577,18.813315381450828L225.7027672359961,18.813315381450828L226.02885889718397,18.813315381450828L226.39571201602033,18.813315381450828L226.51799638896577,18.813315381450828L226.59951930426274,18.813315381450828L226.6402807619112,18.813315381450828L228.43378489844457,18.813315381450828L228.6783536443355,18.813315381450828L228.80063801728093,18.813315381450828L229.08596822082032,18.813315381450828L229.61586717025065,18.813315381450828L229.6973900855476,69.50414759611398L229.7381515431961,94.84955463921952L230.02348174673548,18.813315381450828L230.75718798440823,18.813315381450828L231.69470151032334,18.813315381450828L231.89850879856576,18.813315381450828L232.71373795153548,18.813315381450828L232.79526086683245,18.813315381450828L233.03982961272334,18.813315381450828L234.09962751158395,18.813315381450828L234.30343479982636,18.813315381450828L234.99637957985064,18.813315381450828L235.73008581752333,18.813315381450828L236.05617747871125,18.813315381450828L236.99369100462636,18.813315381450828L237.1567368352203,18.813315381450828L237.31978266581422,18.813315381450828L237.36054412346277,18.813315381450828L238.42034202232333,18.813315381450828L239.3578555482385,18.813315381450828L240.53993782004457,44.15872242455637L240.98831385417787,18.813315381450828L241.64049717655365,18.813315381450828L242.21115758363243,18.813315381450828L242.2519190412809,44.15872242455637L243.06714819425062,18.813315381450828L244.04542317781426,18.813315381450828L244.69760650019,94.84955463921952L245.47207419551123,94.84955463921952L245.59435856845667,120.19496168232506L245.7981658566991,44.15872242455637L247.30633978969303,18.813315381450828L247.59166999323241,18.813315381450828L247.75471582382636,18.813315381450828L247.99928456971725,18.813315381450828L248.2438533156082,18.813315381450828L248.4476606038506,18.813315381450828L248.56994497679605,18.813315381450828L248.65146789209302,18.813315381450828L249.6297428756567,18.813315381450828L249.95583453684455,18.813315381450828L250.64877931686877,18.813315381450828L250.8525866051112,18.813315381450828L250.93410952040819,18.813315381450828L251.42324701219,18.813315381450828L251.50476992748696,18.813315381450828L251.74933867337785,18.813315381450828L252.2384761651597,18.813315381450828L252.44228345340213,18.813315381450828L252.84989802988696,18.813315381450828L253.2575126063718,18.813315381450828L254.39883342052937,18.813315381450828L254.48035633582634,18.813315381450828L254.64340216642026,18.813315381450828L255.25482403114756,18.813315381450828L256.92604379473545,18.813315381450828L257.0483281676809,18.813315381450828L257.7820344053536,94.84955463921952L258.51574064302633,170.88579389698822L259.2086854230506,18.813315381450828L259.33096979599605,18.813315381450828L259.53477708423844,18.813315381450828L259.7385843724809,18.813315381450828L260.4722906101536,18.813315381450828L260.5130520678021,18.813315381450828L261.2059968478263,18.813315381450828L261.3282812207718,18.813315381450828L261.6136114243112,18.813315381450828L262.7141707808203,18.813315381450828L262.79569369611727,18.813315381450828L263.08102389965666,18.813315381450828L263.8147301373294,18.813315381450828L264.18158325616577,18.813315381450828L264.5484363750021,18.813315381450828L264.95605095148693,18.813315381450828L265.4044269856203,18.813315381450828L265.5674728162142,44.15872242455637L265.6082342738627,18.813315381450828L266.38270196918387,18.813315381450828L266.5865092574263,18.813315381450828L266.6680321727233,18.813315381450828L266.83107800331726,18.813315381450828L267.1979311221536,18.813315381450828L267.9316373598263,18.813315381450828L268.74686651279603,18.813315381450828L268.9506738010384,18.813315381450828L269.3175269198748,18.813315381450828L269.56209566576575,18.813315381450828L269.60285712341425,18.813315381450828L269.76590295400814,18.813315381450828L269.8881873269536,18.813315381450828L270.7849393952203,18.813315381450828L271.51864563289297,18.813315381450828L271.6816914634869,18.813315381450828L271.88549875172936,18.813315381450828L272.53768207410513,18.813315381450828L272.6192049894021,18.813315381450828L273.0268195658869,18.813315381450828L273.2713883117778,18.813315381450828L273.35291122707486,18.813315381450828L273.59747997296574,18.813315381450828L273.6790028882627,18.813315381450828L273.7605258035597,18.813315381450828L274.24966329534146,18.813315381450828L274.3311862106384,18.813315381450828L274.4127091259354,18.813315381450828L275.3502226518506,18.813315381450828L275.7170757706869,18.813315381450828L275.83936014363235,18.813315381450828L276.4915434660081,18.813315381450828L276.93991950014146,18.813315381450828L277.02144241543846,18.813315381450828L277.26601116132935,18.813315381450828L277.7959101107597,18.813315381450828L277.99971739900207,18.813315381450828L278.28504760254145,18.813315381450828L278.52961634843234,18.813315381450828L279.0595152978627,18.813315381450828L280.1193131967233,18.813315381450828L281.05682672263845,18.813315381450828L281.21987255323234,18.813315381450828L281.26063401088084,18.813315381450828L281.5459642144203,18.813315381450828L282.2389089944445,18.813315381450828L282.68728502857783,18.813315381450828L283.13566106271116,18.813315381450828L283.42099126625055,18.813315381450828L283.66556001214144,18.813315381450828L284.6438349957051,44.15872242455637L286.88571516637177,18.813315381450828L287.0487609969657,18.813315381450828L287.578659946396,18.813315381450828L288.1900818111233,18.813315381450828L288.51617347231115,18.813315381450828L288.55693492995965,18.813315381450828L288.7199807605536,18.813315381450828L289.12759533703843,18.813315381450828L289.5352099135233,18.813315381450828L289.57597137117176,18.813315381450828L289.61673282882026,18.813315381450828L289.94282449000815,18.813315381450828L290.7580536429778,18.813315381450828L291.7363286265414,18.813315381450828L292.02165883008087,18.813315381450828L292.1439432030263,18.813315381450828L292.55155777951114,18.813315381450828L292.91841089834753,18.813315381450828L293.040695271293,18.813315381450828L293.44830984777786,18.813315381450828L293.65211713602025,18.813315381450828L295.1195296113657,18.813315381450828L295.486382730202,18.813315381450828L295.567905645499,18.813315381450828L295.73095147609297,18.813315381450828L295.9755202219839,18.813315381450828L296.09780459492936,18.813315381450828L296.38313479846875,18.813315381450828L296.7092264596566,18.813315381450828L296.831510832602,18.813315381450828L297.1576024937899,18.813315381450828L297.3206483243839,18.813315381450828L297.48369415497785,18.813315381450828L298.42120768089296,18.813315381450828L298.5842535114869,18.813315381450828L298.8695837150263,18.813315381450828L299.03262954562024,18.813315381450828L299.48100557975357,18.813315381450828L299.9701430715354,18.813315381450828L300.6223263939111,18.813315381450828L301.6413628351233,18.813315381450828L302.2527846998505,18.813315381450828L302.82344510692934,18.813315381450828L303.14953676811723,18.813315381450828L303.47562842930506,18.813315381450828L303.72019717519595,18.813315381450828L303.76095863284445,18.813315381450828L304.82075653170506,18.813315381450828L305.3914169387839,18.813315381450828L306.41045337999594,18.813315381450828L307.1033981600202,18.813315381450828L307.59253565180205,18.813315381450828L307.7148200247475,18.813315381450828L307.95938877063844,94.84955463921952L308.6930950083111,44.15872242455637L308.7746179236081,18.813315381450828L309.5083241612808,18.813315381450828L309.67136999187477,18.813315381450828L310.52736060249293,18.813315381450828L310.69040643308693,18.813315381450828L310.97573663662627,18.813315381450828L311.5056355860566,18.813315381450828L311.7502043319475,18.813315381450828L312.32086473902626,18.813315381450828L312.8100022308081,18.813315381450828L313.4214240955354,18.813315381450828L313.74751575672326,18.813315381450828L313.78827721437176,18.813315381450828L314.6850292826384,18.813315381450828L314.84807511323237,18.813315381450828L315.41873552031115,18.813315381450828L315.9078730120929,18.813315381450828L315.9486344697414,18.813315381450828L316.2339646732808,69.50414759611398L316.8046250803596,18.813315381450828L317.0491938262505,18.813315381450828L317.3345240297899,18.813315381450828L317.4160469450869,18.813315381450828L317.78290006392325,18.813315381450828L317.8644229792202,18.813315381450828L317.9051844368687,18.813315381450828L318.6796521321899,18.813315381450828L318.80193650513536,18.813315381450828L319.16878962397175,18.813315381450828L319.698688573402,18.813315381450828L320.67696355696563,18.813315381450828L321.32914687934147,18.813315381450828L321.77752291347474,18.813315381450828L322.51122915114746,18.813315381450828L322.91884372763235,18.813315381450828L322.9596051852808,18.813315381450828L323.20417393117174,18.813315381450828L323.4895041347111,18.813315381450828L323.652549965305,18.813315381450828L323.6933114229535,18.813315381450828L323.734072880602,18.813315381450828L324.6308249488687,18.813315381450828L324.6715864065172,18.813315381450828L324.8346322371111,18.813315381450828L324.91615515240807,18.813315381450828L325.28300827124446,18.813315381450828L325.4460541018384,18.813315381450828L326.62813637364445,44.15872242455637L326.66889783129295,145.54038685388267L327.0357509501293,18.813315381450828L327.1580353230747,18.813315381450828L327.4433655266141,18.813315381450828L327.85098010309895,18.813315381450828L327.89174156074745,18.813315381450828L327.97326447604445,18.813315381450828L328.1770717642869,18.813315381450828L328.4216405101778,18.813315381450828L328.5846863407717,18.813315381450828L328.66620925606867,18.813315381450828L329.31839257844445,18.813315381450828L329.56296132433533,18.813315381450828L329.60372278198383,18.813315381450828L329.9298144431717,18.813315381450828L330.70428213849294,18.813315381450828L331.39722691851716,18.813315381450828L332.45702481737777,18.813315381450828L333.39453834329294,18.813315381450828L333.9244372927232,18.813315381450828L334.04672166566866,18.813315381450828L335.3103268527717,69.50414759611398L335.3510883104202,69.50414759611398L336.003271632796,18.813315381450828L336.04403309044443,18.813315381450828L336.45164766692926,18.813315381450828L336.5739320398747,18.813315381450828L336.6554549551717,18.813315381450828L337.10383098930504,18.813315381450828L337.348399735196,18.813315381450828L337.4706841081414,18.813315381450828L337.63372993873537,18.813315381450828L338.36743617640803,18.813315381450828L338.40819763405653,18.813315381450828L338.5712434646505,18.813315381450828L338.693527837596,18.813315381450828L338.7750507528929,18.813315381450828L339.3457111599717,18.813315381450828L339.50875699056564,18.813315381450828L339.957133024699,44.15872242455637L340.0794173976444,18.813315381450828L340.8946465506141,18.813315381450828L341.220738211802,18.813315381450828L341.62835278828686,18.813315381450828L341.66911424593536,18.813315381450828L342.11749028006864,18.813315381450828L343.0550038059838,18.813315381450828L343.25881109422625,18.813315381450828L343.9517558742505,44.15872242455637L345.7452600107838,18.813315381450828L345.7860214684323,18.813315381450828L345.94906729902624,18.813315381450828L346.1121131296202,18.813315381450828L346.8458193672929,18.813315381450828L347.0903881131838,18.813315381450828L348.8431307920686,18.813315381450828L349.1692224532565,18.813315381450828L349.49531411444445,18.813315381450828L349.5360755720929,18.813315381450828L350.2290203521171,18.813315381450828L350.75891930154745,18.813315381450828L350.9219651321414,18.813315381450828L351.3703411662747,18.813315381450828L351.8594786580565,18.813315381450828L351.981763031002,18.813315381450828L352.06328594629895,18.813315381450828L352.2263317768929,18.813315381450828L352.5524234380808,18.813315381450828L354.9981108969899,18.813315381450828L355.2426796428808,18.813315381450828L355.2834411005293,18.813315381450828L355.9763858805535,44.15872242455637L356.2617160840929,18.813315381450828L357.199229610008,18.813315381450828L357.362275440602,18.813315381450828L357.8106514747353,18.813315381450828L357.93293584768077,18.813315381450828L358.62588062770504,18.813315381450828L358.87044937359593,18.813315381450828L359.4003483230262,18.813315381450828L360.21557747599593,18.813315381450828L360.58243059483226,18.813315381450828L361.234613917208,18.813315381450828L361.31613683250504,18.813315381450828L361.68298995134137,18.813315381450828L362.0498430701777,18.813315381450828L362.3759347313656,18.813315381450828L363.1911638843353,18.813315381450828L363.27268679963225,18.813315381450828L363.3949711725777,18.813315381450828L363.4764940878747,18.813315381450828L363.7210628337656,18.813315381450828L364.2102003255474,18.813315381450828L364.2509617831959,18.813315381450828L364.5362919867353,18.813315381450828L364.65857635968075,18.813315381450828L364.8623836479232,18.813315381450828L365.1477138514625,18.813315381450828L365.2292367667595,18.813315381450828L367.30807110683224,18.813315381450828L367.7564471409656,18.813315381450828L367.878731513911,18.813315381450828L368.0825388021535,18.813315381450828L368.73472212452924,18.813315381450828L368.8977679551232,18.813315381450828L368.93852941277163,18.813315381450828L369.02005232806863,18.813315381450828L369.4276669045535,18.813315381450828L369.5907127351474,18.813315381450828L369.75375856574135,18.813315381450828L370.12061168457774,18.813315381450828L370.1613731422262,18.813315381450828L370.3651804304686,18.813315381450828L370.52822626106257,18.813315381450828L370.56898771871107,18.813315381450828L371.18040958343835,18.813315381450828L372.44401477054134,18.813315381450828L372.9331522623232,18.813315381450828L373.21848246586256,18.813315381450828L373.422289754105,18.813315381450828L373.9929501611838,18.813315381450828L374.3598032800201,18.813315381450828L374.9712251447474,18.813315381450828L375.4196011788807,18.813315381450828L375.7049313824201,18.813315381450828L375.7456928400686,18.813315381450828L376.112545958905,18.813315381450828L377.6614813495474,44.15872242455637L377.7837657224929,44.15872242455637L377.86528863778983,18.813315381450828L377.9875730107353,18.813315381450828L378.0283344683838,18.813315381450828L378.1913802989777,18.813315381450828L379.4957469437292,69.50414759611398L380.06640735080805,94.84955463921952L381.1669667073171,18.813315381450828L381.41153545320805,18.813315381450828L381.57458128380193,18.813315381450828L382.30828752147465,18.813315381450828L382.5120948097171,18.813315381450828L383.1235166744444,18.813315381450828L383.2458010473898,18.813315381450828L383.36808542033526,18.813315381450828L384.2240760309535,18.813315381450828L384.67245206508676,44.15872242455637L385.2023510145171,18.813315381450828L385.2431124721656,18.813315381450828L385.6507270486504,18.813315381450828L385.77301142159587,18.813315381450828L385.9360572521898,18.813315381450828L386.6290020322141,18.813315381450828L386.71052494751103,18.813315381450828L386.8328093204565,18.813315381450828L387.68879993107464,18.813315381450828L387.77032284637164,18.813315381450828L387.9741301346141,18.813315381450828L388.4225061687474,18.813315381450828L388.74859782993525,18.813315381450828L388.9116436605292,18.813315381450828L389.60458844055347,18.813315381450828L389.84915718644436,18.813315381450828L390.2567717629292,18.813315381450828L390.33829467822613,18.813315381450828L390.58286342411714,18.813315381450828L390.7866707123595,18.813315381450828L390.99047800060197,18.813315381450828L391.1127623735474,18.813315381450828L391.72418423827463,18.813315381450828L391.76494569592313,18.813315381450828L392.86550505243224,18.813315381450828L393.1915967136201,18.813315381450828L393.59921129010496,18.813315381450828L394.0475873242383,18.813315381450828L394.9035779348565,18.813315381450828L395.5965227148807,18.813315381450828L395.6372841725292,18.813315381450828L396.9416508172807,18.813315381450828L396.9824122749292,18.813315381450828L397.2269810208201,18.813315381450828L399.34657681854134,18.813315381450828L399.4280997338383,18.813315381450828L399.71342993737767,18.813315381450828L399.8357143103231,18.813315381450828L400.12104451386256,18.813315381450828L401.22160387037167,18.813315381450828L402.0775944809898,18.813315381450828L402.4852090574746,18.813315381450828L403.1373923798504,18.813315381450828L403.2189152951474,18.813315381450828L403.3004382104443,18.813315381450828L403.50424549868677,18.813315381450828L404.80861214343827,18.813315381450828L405.0124194316807,18.813315381450828L405.46079546581404,18.813315381450828L405.50155692346254,18.813315381450828L405.54231838111104,18.813315381450828L405.6646027540565,18.813315381450828L406.3167860764322,18.813315381450828L407.4173454329413,18.813315381450828L407.53962980588676,18.813315381450828L408.3548589588565,18.813315381450828L408.59942770474737,18.813315381450828L408.64018916239587,18.813315381450828L409.6999870612565,18.813315381450828L409.98531726479587,18.813315381450828L410.27064746833526,18.813315381450828L411.61577557073525,18.813315381450828L411.7380599436807,18.813315381450828L412.5125276390019,18.813315381450828L412.5532890966504,18.813315381450828L412.92014221548675,18.813315381450828L413.2054724190262,18.813315381450828L413.32775679197164,18.813315381450828L413.613086995511,18.813315381450828L413.73537136845647,18.813315381450828L414.50983906377763,18.813315381450828L414.63212343672313,18.813315381450828L415.08049947085647,18.813315381450828L415.52887550498974,18.813315381450828L415.93649008147463,18.813315381450828L416.01801299677163,18.813315381450828L416.0587744544201,18.813315381450828L416.1810588273656,18.813315381450828L417.1593338109291,18.813315381450828L417.3631410991716,18.813315381450828L417.40390255682007,18.813315381450828L417.566948387414,18.813315381450828L418.34141608273524,18.813315381450828L418.3821775403837,18.813315381450828L418.74903065922007,18.813315381450828L419.07512232040796,18.813315381450828L419.5642598121898,18.813315381450828L421.0724337451837,18.813315381450828L421.1947181181292,18.813315381450828L421.56157123696556,18.813315381450828L421.602332694614,18.813315381450828L421.84690144050495,18.813315381450828L421.9284243558019,18.813315381450828L422.2952774746382,18.813315381450828L423.7219284923352,18.813315381450828L423.92573578057767,18.813315381450828L424.8632493064928,18.813315381450828L424.9855336794382,18.813315381450828L425.10781805238366,18.813315381450828L425.4746711712201,18.813315381450828L426.61599198537766,18.813315381450828L427.59426696894127,18.813315381450828L428.00188154542616,18.813315381450828L430.24376171609276,18.813315381450828L430.48833046198365,18.813315381450828L430.65137629257765,18.813315381450828L430.7736606655231,18.813315381450828L431.2220366996564,18.813315381450828L431.3443210726019,18.813315381450828" style="fill: none;" fill="none"></path></g></g></g></g></g></g><g transform="translate(51, 376)" clip-path="url(#clip_1)"><clipPath id="clip_1"><rect width="445" height="22"></rect></clipPath><g><g><line x1="23.77050604540241" y1="0" x2="23.77050604540241" y2="5" style="visibility: inherit;" fill="rgb(0, 0, 0)" stroke="rgb(204, 204, 204)" stroke-width="1px"></line><line x1="64.5319636938872" y1="0" x2="64.5319636938872" y2="5" style="visibility: inherit;" fill="rgb(0, 0, 0)" stroke="rgb(204, 204, 204)" stroke-width="1px"></line><line x1="105.293421342372" y1="0" x2="105.293421342372" y2="5" style="visibility: inherit;" fill="rgb(0, 0, 0)" stroke="rgb(204, 204, 204)" stroke-width="1px"></line><line x1="146.0548789908568" y1="0" x2="146.0548789908568" y2="5" style="visibility: inherit;" fill="rgb(0, 0, 0)" stroke="rgb(204, 204, 204)" stroke-width="1px"></line><line x1="186.81633663934159" y1="0" x2="186.81633663934159" y2="5" style="visibility: inherit;" fill="rgb(0, 0, 0)" stroke="rgb(204, 204, 204)" stroke-width="1px"></line><line x1="227.57779428782638" y1="0" x2="227.57779428782638" y2="5" style="visibility: inherit;" fill="rgb(0, 0, 0)" stroke="rgb(204, 204, 204)" stroke-width="1px"></line><line x1="268.3392519363112" y1="0" x2="268.3392519363112" y2="5" style="visibility: inherit;" fill="rgb(0, 0, 0)" stroke="rgb(204, 204, 204)" stroke-width="1px"></line><line x1="309.10070958479594" y1="0" x2="309.10070958479594" y2="5" style="visibility: inherit;" fill="rgb(0, 0, 0)" stroke="rgb(204, 204, 204)" stroke-width="1px"></line><line x1="349.8621672332808" y1="0" x2="349.8621672332808" y2="5" style="visibility: inherit;" fill="rgb(0, 0, 0)" stroke="rgb(204, 204, 204)" stroke-width="1px"></line><line x1="390.6236248817656" y1="0" x2="390.6236248817656" y2="5" style="visibility: inherit;" fill="rgb(0, 0, 0)" stroke="rgb(204, 204, 204)" stroke-width="1px"></line><line x1="431.3850825302504" y1="0" x2="431.3850825302504" y2="5" style="visibility: inherit;" fill="rgb(0, 0, 0)" stroke="rgb(204, 204, 204)" stroke-width="1px"></line></g><g transform="translate(0, 8)"><text x="23.77050604540241" y="0" dx="0em" dy="0.95em" style="text-anchor: middle; visibility: inherit; font-family: Roboto, sans-serif; font-size: 12px; font-weight: 200;" fill="rgb(255, 255, 255)" stroke="none" stroke-width="1px">0</text><text x="64.5319636938872" y="0" dx="0em" dy="0.95em" style="text-anchor: middle; visibility: inherit; font-family: Roboto, sans-serif; font-size: 12px; font-weight: 200;" fill="rgb(255, 255, 255)" stroke="none" stroke-width="1px">1k</text><text x="105.293421342372" y="0" dx="0em" dy="0.95em" style="text-anchor: middle; visibility: inherit; font-family: Roboto, sans-serif; font-size: 12px; font-weight: 200;" fill="rgb(255, 255, 255)" stroke="none" stroke-width="1px">2k</text><text x="146.0548789908568" y="0" dx="0em" dy="0.95em" style="text-anchor: middle; visibility: inherit; font-family: Roboto, sans-serif; font-size: 12px; font-weight: 200;" fill="rgb(255, 255, 255)" stroke="none" stroke-width="1px">3k</text><text x="186.81633663934159" y="0" dx="0em" dy="0.95em" style="text-anchor: middle; visibility: inherit; font-family: Roboto, sans-serif; font-size: 12px; font-weight: 200;" fill="rgb(255, 255, 255)" stroke="none" stroke-width="1px">4k</text><text x="227.57779428782638" y="0" dx="0em" dy="0.95em" style="text-anchor: middle; visibility: inherit; font-family: Roboto, sans-serif; font-size: 12px; font-weight: 200;" fill="rgb(255, 255, 255)" stroke="none" stroke-width="1px">5k</text><text x="268.3392519363112" y="0" dx="0em" dy="0.95em" style="text-anchor: middle; visibility: inherit; font-family: Roboto, sans-serif; font-size: 12px; font-weight: 200;" fill="rgb(255, 255, 255)" stroke="none" stroke-width="1px">6k</text><text x="309.10070958479594" y="0" dx="0em" dy="0.95em" style="text-anchor: middle; visibility: inherit; font-family: Roboto, sans-serif; font-size: 12px; font-weight: 200;" fill="rgb(255, 255, 255)" stroke="none" stroke-width="1px">7k</text><text x="349.8621672332808" y="0" dx="0em" dy="0.95em" style="text-anchor: middle; visibility: inherit; font-family: Roboto, sans-serif; font-size: 12px; font-weight: 200;" fill="rgb(255, 255, 255)" stroke="none" stroke-width="1px">8k</text><text x="390.6236248817656" y="0" dx="0em" dy="0.95em" style="text-anchor: middle; visibility: inherit; font-family: Roboto, sans-serif; font-size: 12px; font-weight: 200;" fill="rgb(255, 255, 255)" stroke="none" stroke-width="1px">9k</text><text x="431.3850825302504" y="0" dx="0em" dy="0.95em" style="text-anchor: middle; visibility: inherit; font-family: Roboto, sans-serif; font-size: 12px; font-weight: 200;" fill="rgb(255, 255, 255)" stroke="none" stroke-width="1px">10k</text></g><line x1="0" y1="0" x2="445.6875" y2="0" fill="rgb(0, 0, 0)" stroke="rgb(204, 204, 204)" stroke-width="1px"></line></g></g></g></g></svg>